# xmcd
# 
# Track frame offsets:
#     150
#     3412
#     20520
#     40887
#     63090
#     81742
#     102757
#     125397
#     140980
#     159825
#     178500
#     197970
#     216675
# 
# Disc length: 3158
# 
# Revision: 10
# Processed by: cddbd v1.5.2PL0 Copyright (c) Steve Scherf et al.
# Submitted via: BonkEnc v1.0.8
# 
DISCID=ba0c540d
DTITLE=MINMI - Miracle
DYEAR=2003
DGENRE=Reggae
TTITLE0=Intro
TTITLE1=The Perfect Vision
TTITLE2=T.T.T.
TTITLE3=Home Town
TTITLE4=Once Upon a Star
TTITLE5=Eternal Destination feat.TMG&4WD
TTITLE6=SUNSHINE feat.the Salacious SAL
TTITLE7=LOVE SONG
TTITLE8=You need a… feat.TAKAFIN
TTITLE9=カイラクノカナタ
TTITLE10=Fly High
TTITLE11=south orange
TTITLE12=Miracle
EXTD=YEAR: 2003
EXTT0=
EXTT1=
EXTT2=
EXTT3=
EXTT4=
EXTT5=
EXTT6=
EXTT7=
EXTT8=
EXTT9=
EXTT10=
EXTT11=
EXTT12=
PLAYORDER=
